<svg width="33" height="34" viewBox="0 0 33 34" fill="none" xmlns="http://www.w3.org/2000/svg">
<path d="M16.2402 5.82156L16.4802 5.79956C16.7923 5.79945 17.0945 5.91223 17.3342 6.11826C17.574 6.32428 17.736 6.6105 17.7922 6.92706L17.8135 7.17456V15.4246H25.8135C26.1256 15.4245 26.4278 15.5372 26.6676 15.7433C26.9073 15.9493 27.0694 16.2355 27.1255 16.5521L27.1469 16.7996C27.147 17.1214 27.0376 17.433 26.8378 17.6803C26.6381 17.9275 26.3605 18.0946 26.0535 18.1526L25.8135 18.1746H17.8135V26.4246C17.8136 26.7464 17.7043 27.058 17.5045 27.3053C17.3047 27.5525 17.0272 27.7196 16.7202 27.7776L16.4802 27.7996C16.1681 27.7997 15.8659 27.6869 15.6262 27.4809C15.3864 27.2748 15.2244 26.9886 15.1682 26.6721L15.1469 26.4246V18.1746H7.14687C6.8348 18.1747 6.53258 18.0619 6.29285 17.8559C6.05311 17.6498 5.89104 17.3636 5.83487 17.0471L5.81354 16.7996C5.81343 16.4777 5.92279 16.1661 6.12258 15.9188C6.32236 15.6716 6.5999 15.5045 6.90687 15.4466L7.14687 15.4246H15.1469V7.17456C15.1468 6.85274 15.2561 6.54108 15.4559 6.29385C15.6557 6.04662 15.9332 5.87949 16.2402 5.82156Z" fill="#A2A2A2"/>
</svg>
