<svg width="50" height="50" viewBox="0 0 50 50" fill="none" xmlns="http://www.w3.org/2000/svg">
<path d="M26.2001 34.605H38.5001C40.7401 34.605 42.5001 32.8225 42.5001 30.69V13.915C42.5001 11.7825 40.7401 10 38.5001 10H11.5001C9.26007 10 7.50007 11.7825 7.50007 13.915V30.69C7.50007 32.8225 9.26007 34.605 11.5001 34.605H15.5001V42.5H15.5076L15.5126 42.4975L26.2026 34.605H26.2001ZM17.0001 44.5075C16.4679 44.8998 15.8029 45.0675 15.1483 44.9744C14.4938 44.8814 13.9019 44.5351 13.5001 44.01C13.178 43.5857 13.0033 43.0677 13.0026 42.535V37.105H11.5026C7.91256 37.105 5.00257 34.2325 5.00257 30.69V13.915C5.00007 10.3725 7.91007 7.5 11.5001 7.5H38.5001C42.0901 7.5 45.0001 10.3725 45.0001 13.915V30.69C45.0001 34.235 42.0901 37.105 38.5001 37.105H27.0251L16.9976 44.5075H17.0001Z" fill="black"/>
</svg>
