<svg width="50" height="50" viewBox="0 0 50 50" fill="none" xmlns="http://www.w3.org/2000/svg">
<path d="M23.5656 12.3375C21.666 10.429 19.0864 9.35295 16.3937 9.34592C13.701 9.33889 11.1157 10.4015 9.20621 12.3C7.30765 14.2095 6.24508 16.7948 6.25211 19.4875C6.25914 22.1802 7.3352 24.7599 9.24371 26.6594L23.9531 41.3719C24.2461 41.6648 24.6435 41.8294 25.0578 41.8294C25.4721 41.8294 25.8694 41.6648 26.1625 41.3719L40.7968 26.7469C42.6944 24.8375 43.7564 22.2529 43.7494 19.561C43.7423 16.8691 42.6669 14.2901 40.7593 12.3906C39.818 11.4436 38.6993 10.6913 37.4671 10.1768C36.2349 9.66234 34.9133 9.39574 33.578 9.39226C32.2427 9.38878 30.9199 9.64848 29.685 10.1565C28.4501 10.6646 27.3275 11.411 26.3812 12.3531L24.9843 13.7531L23.5656 12.3375ZM38.5812 24.5406L25.0625 38.0563L11.4531 24.45C10.1314 23.1366 9.38503 21.3523 9.378 19.489C9.37097 17.6257 10.1038 15.8358 11.4156 14.5125C12.7382 13.199 14.5283 12.4644 16.3924 12.4703C18.2564 12.4761 20.0419 13.2219 21.3562 14.5438L23.8875 17.075C24.0346 17.2222 24.2097 17.3385 24.4025 17.4171C24.5952 17.4957 24.8018 17.535 25.0099 17.5327C25.2181 17.5303 25.4236 17.4865 25.6146 17.4036C25.8055 17.3207 25.978 17.2005 26.1218 17.05L28.5906 14.5625C29.2467 13.9105 30.0249 13.3941 30.8806 13.0431C31.7364 12.692 32.653 12.5131 33.578 12.5166C34.503 12.5201 35.4183 12.7059 36.2714 13.0634C37.1245 13.4209 37.8988 13.943 38.55 14.6C39.8718 15.9144 40.6176 17.6998 40.6235 19.5639C40.6293 21.4279 39.8947 23.218 38.5812 24.5406Z" fill="black"/>
</svg>
