<svg width="50" height="51" viewBox="0 0 50 51" fill="none" xmlns="http://www.w3.org/2000/svg">
<path d="M23.5656 12.5875C21.666 10.679 19.0864 9.60292 16.3937 9.59589C13.701 9.58886 11.1157 10.6514 9.20621 12.55C7.30765 14.4595 6.24508 17.0447 6.25211 19.7374C6.25914 22.4301 7.3352 25.0098 9.24371 26.9094L23.9531 41.6219C24.2461 41.9148 24.6435 42.0793 25.0578 42.0793C25.4721 42.0793 25.8694 41.9148 26.1625 41.6219L40.7968 26.9969C42.6944 25.0875 43.7564 22.5029 43.7494 19.811C43.7423 17.119 42.6669 14.54 40.7593 12.6406C39.818 11.6935 38.6993 10.9413 37.4671 10.4268C36.2349 9.91231 34.9133 9.64571 33.578 9.64223C32.2427 9.63875 30.9199 9.89845 29.685 10.4065C28.4501 10.9145 27.3275 11.661 26.3812 12.6031L24.9843 14.0031L23.5656 12.5875Z" fill="#ED4956"/>
</svg>
