<svg width="315" height="136" viewBox="0 0 315 136" fill="none" xmlns="http://www.w3.org/2000/svg">
<path d="M13.7008 69.092H6.04456V24.2795H13.7008V69.092ZM52.4508 69.092H45.2008V51.0608C45.2008 45.0816 43.0862 42.092 38.8571 42.092C36.6487 42.092 34.8258 42.9254 33.3883 44.592C31.9508 46.2379 31.2321 48.3212 31.2321 50.842V69.092H23.9508V37.092H31.2321V42.4045H31.3571C33.7529 38.3629 37.2112 36.342 41.7321 36.342C45.2112 36.342 47.8675 37.4775 49.7008 39.7483C51.5341 41.9983 52.4508 45.2587 52.4508 49.5295V69.092ZM59.3258 68.092V61.3733C62.0341 63.4358 65.0237 64.467 68.2946 64.467C72.6696 64.467 74.8571 63.1754 74.8571 60.592C74.8571 59.8629 74.6696 59.2483 74.2946 58.7483C73.9196 58.2275 73.4091 57.7691 72.7633 57.3733C72.1383 56.9775 71.3883 56.6233 70.5133 56.3108C69.6591 55.9983 68.7008 55.6441 67.6383 55.2483C66.3258 54.7275 65.1383 54.1754 64.0758 53.592C63.0341 53.0087 62.1591 52.3525 61.4508 51.6233C60.7633 50.8733 60.2425 50.0295 59.8883 49.092C59.5341 48.1545 59.3571 47.0608 59.3571 45.8108C59.3571 44.2691 59.7216 42.915 60.4508 41.7483C61.18 40.5608 62.1591 39.5712 63.3883 38.7795C64.6175 37.967 66.0133 37.3629 67.5758 36.967C69.1383 36.5504 70.7529 36.342 72.4196 36.342C75.3779 36.342 78.0237 36.79 80.3571 37.6858V44.0295C78.1071 42.4879 75.5237 41.717 72.6071 41.717C71.6904 41.717 70.8571 41.8108 70.1071 41.9983C69.3779 42.1858 68.7529 42.4462 68.2321 42.7795C67.7112 43.1129 67.305 43.5191 67.0133 43.9983C66.7216 44.4566 66.5758 44.967 66.5758 45.5295C66.5758 46.217 66.7216 46.8004 67.0133 47.2795C67.305 47.7587 67.7321 48.1858 68.2946 48.5608C68.8779 48.915 69.5654 49.2483 70.3571 49.5608C71.1696 49.8525 72.0966 50.1754 73.1383 50.5295C74.5133 51.092 75.7425 51.665 76.8258 52.2483C77.93 52.8316 78.8675 53.4983 79.6383 54.2483C80.4091 54.9775 81.0029 55.8316 81.4196 56.8108C81.8362 57.7691 82.0446 58.915 82.0446 60.2483C82.0446 61.8733 81.6696 63.29 80.9196 64.4983C80.1696 65.7066 79.1696 66.7066 77.9196 67.4983C76.6696 68.29 75.2216 68.8733 73.5758 69.2483C71.9508 69.6441 70.2321 69.842 68.4196 69.842C64.9196 69.842 61.8883 69.2587 59.3258 68.092ZM105.826 68.7483C104.409 69.4566 102.545 69.8108 100.232 69.8108C94.0237 69.8108 90.9196 66.8316 90.9196 60.8733V42.7795H85.5758V37.092H90.9196V29.6858L98.1696 27.6233V37.092H105.826V42.7795H98.1696V58.7795C98.1696 60.6754 98.5133 62.0295 99.2008 62.842C99.8883 63.6545 101.034 64.0608 102.638 64.0608C103.867 64.0608 104.93 63.7066 105.826 62.9983V68.7483ZM136.638 69.092H129.607V64.092H129.482C127.274 67.9254 124.034 69.842 119.763 69.842C116.617 69.842 114.149 68.9879 112.357 67.2795C110.586 65.5712 109.701 63.3108 109.701 60.4983C109.701 54.4566 113.18 50.9358 120.138 49.9358L129.638 48.592C129.638 44.0295 127.472 41.7483 123.138 41.7483C119.326 41.7483 115.888 43.0608 112.826 45.6858V39.342C116.201 37.342 120.097 36.342 124.513 36.342C132.597 36.342 136.638 40.3212 136.638 48.2795V69.092ZM129.638 53.3733L122.92 54.3108C120.836 54.5816 119.263 55.092 118.201 55.842C117.159 56.5712 116.638 57.8629 116.638 59.717C116.638 61.0712 117.117 62.1858 118.076 63.0608C119.055 63.915 120.357 64.342 121.982 64.342C124.19 64.342 126.013 63.5712 127.451 62.0295C128.909 60.467 129.638 58.5087 129.638 56.1545V53.3733ZM174.638 66.5295C174.638 78.2795 168.732 84.1545 156.92 84.1545C152.753 84.1545 149.117 83.4566 146.013 82.0608V75.4358C149.513 77.4358 152.836 78.4358 155.982 78.4358C163.586 78.4358 167.388 74.6962 167.388 67.217V63.717H167.263C164.867 67.8004 161.263 69.842 156.451 69.842C152.555 69.842 149.409 68.4254 147.013 65.592C144.638 62.7379 143.451 58.915 143.451 54.1233C143.451 48.6858 144.732 44.3629 147.295 41.1545C149.857 37.9462 153.378 36.342 157.857 36.342C162.086 36.342 165.222 38.0712 167.263 41.5295H167.388V37.092H174.638V66.5295ZM167.451 54.4358V50.2795C167.451 48.0295 166.701 46.1129 165.201 44.5295C163.722 42.9254 161.867 42.1233 159.638 42.1233C156.888 42.1233 154.732 43.1441 153.17 45.1858C151.628 47.2066 150.857 50.04 150.857 53.6858C150.857 56.8316 151.597 59.3525 153.076 61.2483C154.576 63.1233 156.555 64.0608 159.013 64.0608C161.513 64.0608 163.545 63.165 165.107 61.3733C166.67 59.5608 167.451 57.2483 167.451 54.4358ZM202.638 43.9983C201.763 43.3108 200.503 42.967 198.857 42.967C196.711 42.967 194.92 43.9358 193.482 45.8733C192.045 47.8108 191.326 50.4462 191.326 53.7795V69.092H184.076V37.092H191.326V43.6858H191.451C192.159 41.4358 193.242 39.6858 194.701 38.4358C196.18 37.165 197.826 36.5295 199.638 36.5295C200.951 36.5295 201.951 36.7275 202.638 37.1233V43.9983ZM232.326 69.092H225.295V64.092H225.17C222.961 67.9254 219.722 69.842 215.451 69.842C212.305 69.842 209.836 68.9879 208.045 67.2795C206.274 65.5712 205.388 63.3108 205.388 60.4983C205.388 54.4566 208.867 50.9358 215.826 49.9358L225.326 48.592C225.326 44.0295 223.159 41.7483 218.826 41.7483C215.013 41.7483 211.576 43.0608 208.513 45.6858V39.342C211.888 37.342 215.784 36.342 220.201 36.342C228.284 36.342 232.326 40.3212 232.326 48.2795V69.092ZM225.326 53.3733L218.607 54.3108C216.524 54.5816 214.951 55.092 213.888 55.842C212.847 56.5712 212.326 57.8629 212.326 59.717C212.326 61.0712 212.805 62.1858 213.763 63.0608C214.742 63.915 216.045 64.342 217.67 64.342C219.878 64.342 221.701 63.5712 223.138 62.0295C224.597 60.467 225.326 58.5087 225.326 56.1545V53.3733ZM289.045 69.092H281.795V51.6545C281.795 48.3004 281.315 45.8733 280.357 44.3733C279.42 42.8733 277.826 42.1233 275.576 42.1233C273.68 42.1233 272.065 43.0712 270.732 44.967C269.42 46.8629 268.763 49.1337 268.763 51.7795V69.092H261.482V51.0608C261.482 45.1025 259.378 42.1233 255.17 42.1233C253.211 42.1233 251.597 43.0191 250.326 44.8108C249.076 46.6025 248.451 48.9254 248.451 51.7795V69.092H241.201V37.092H248.451V42.1545H248.576C250.888 38.2795 254.253 36.342 258.67 36.342C260.878 36.342 262.805 36.9566 264.451 38.1858C266.117 39.3941 267.253 40.9879 267.857 42.967C270.232 38.5504 273.774 36.342 278.482 36.342C285.524 36.342 289.045 40.6858 289.045 49.3733V69.092Z" fill="#161616"/>
<path d="M16.0246 107.194L12.0646 100.318H7.06056V108.49H9.14856C9.53256 108.49 9.72456 108.658 9.72456 108.994C9.72456 109.162 9.66456 109.45 9.54456 109.858L9.47256 110.146H2.52456C2.42856 110.002 2.38056 109.81 2.38056 109.57C2.38056 109.306 2.46456 109.066 2.63256 108.85L5.04456 108.562V88.5819H2.95656C2.57256 88.5819 2.38056 88.4139 2.38056 88.0779C2.38056 87.9099 2.44056 87.6219 2.56056 87.2139L2.63256 86.9259H12.1006C13.4446 86.9259 14.5846 87.1419 15.5206 87.5739C16.4566 87.9819 17.2126 88.5339 17.7886 89.2299C18.3646 89.9019 18.7846 90.6339 19.0486 91.4259C19.3126 92.1939 19.4446 92.9259 19.4446 93.6219C19.4446 94.4379 19.2646 95.3019 18.9046 96.2139C18.5686 97.1019 18.0046 97.9059 17.2126 98.6259C16.4206 99.3459 15.3886 99.8379 14.1166 100.102L18.0766 106.69C18.5326 107.458 18.9406 107.974 19.3006 108.238C19.6606 108.478 20.1406 108.598 20.7406 108.598C20.9326 108.598 21.1366 108.598 21.3526 108.598C21.5926 108.574 21.7966 108.55 21.9646 108.526C22.1566 108.862 22.2646 109.306 22.2886 109.858C21.4726 110.146 20.7046 110.29 19.9846 110.29C19.2166 110.29 18.5206 110.05 17.8966 109.57C17.2726 109.066 16.6486 108.274 16.0246 107.194ZM7.06056 98.6619H12.1006C13.7086 98.6619 14.9806 98.1819 15.9166 97.2219C16.8526 96.2379 17.3206 95.0379 17.3206 93.6219C17.3206 92.2059 16.8526 91.0179 15.9166 90.0579C14.9806 89.0739 13.7086 88.5819 12.1006 88.5819H7.06056V98.6619ZM37.9654 100.75H25.8694V101.146C25.8694 103.474 26.4694 105.334 27.6694 106.726C28.8934 108.094 30.5254 108.778 32.5654 108.778C33.5014 108.778 34.4614 108.646 35.4454 108.382C36.4534 108.118 37.2694 107.818 37.8934 107.482C38.0854 107.674 38.2294 107.89 38.3254 108.13C38.4214 108.346 38.4814 108.574 38.5054 108.814C36.5134 109.942 34.4254 110.506 32.2414 110.506C30.5614 110.506 29.0974 110.122 27.8494 109.354C26.6014 108.562 25.6294 107.47 24.9334 106.078C24.2374 104.662 23.8894 103.018 23.8894 101.146C23.8894 99.2499 24.2134 97.6059 24.8614 96.2139C25.5334 94.7979 26.4814 93.7059 27.7054 92.9379C28.9294 92.1699 30.3694 91.7859 32.0254 91.7859C36.4414 91.7859 38.6494 94.4139 38.6494 99.6699C38.4574 100.078 38.2294 100.438 37.9654 100.75ZM26.0134 99.2019H36.7414C36.7414 95.3139 35.1694 93.3699 32.0254 93.3699C30.4414 93.3699 29.1094 93.8979 28.0294 94.9539C26.9734 96.0099 26.3014 97.4259 26.0134 99.2019ZM59.9271 109.642L56.3631 110.326C55.9551 110.11 55.6191 109.846 55.3551 109.534L55.6071 106.006C54.9831 107.374 54.0831 108.466 52.9071 109.282C51.7311 110.098 50.4351 110.506 49.0191 110.506C47.6031 110.506 46.3551 110.122 45.2751 109.354C44.1951 108.562 43.3431 107.482 42.7191 106.114C42.1191 104.722 41.8191 103.126 41.8191 101.326C41.8191 99.4059 42.1671 97.7379 42.8631 96.3219C43.5591 94.8819 44.5431 93.7659 45.8151 92.9739C47.0871 92.1819 48.5751 91.7859 50.2791 91.7859C52.1511 91.7859 53.8431 92.4099 55.3551 93.6579V87.7179H52.4391C52.3671 87.5499 52.3311 87.3819 52.3311 87.2139C52.3311 86.9979 52.4031 86.7699 52.5471 86.5299L56.2911 85.8459C56.6991 86.0619 57.0351 86.3259 57.2991 86.6379V108.454H60.0351C60.1071 108.622 60.1431 108.79 60.1431 108.958C60.1431 109.174 60.0711 109.402 59.9271 109.642ZM55.3551 101.722V95.4939C53.7471 94.1019 52.0551 93.4059 50.2791 93.4059C48.3111 93.4059 46.7511 94.1139 45.5991 95.5299C44.4471 96.9459 43.8711 98.8779 43.8711 101.326C43.8711 102.814 44.0991 104.134 44.5551 105.286C45.0111 106.414 45.6351 107.302 46.4271 107.95C47.2191 108.598 48.1431 108.922 49.1991 108.922C50.3031 108.922 51.3231 108.598 52.2591 107.95C53.1951 107.278 53.9391 106.402 54.4911 105.322C55.0671 104.218 55.3551 103.018 55.3551 101.722ZM77.0592 100.75H64.9632V101.146C64.9632 103.474 65.5632 105.334 66.7632 106.726C67.9872 108.094 69.6192 108.778 71.6592 108.778C72.5952 108.778 73.5552 108.646 74.5392 108.382C75.5472 108.118 76.3632 107.818 76.9872 107.482C77.1792 107.674 77.3232 107.89 77.4192 108.13C77.5152 108.346 77.5752 108.574 77.5992 108.814C75.6072 109.942 73.5192 110.506 71.3352 110.506C69.6552 110.506 68.1912 110.122 66.9432 109.354C65.6952 108.562 64.7232 107.47 64.0272 106.078C63.3312 104.662 62.9832 103.018 62.9832 101.146C62.9832 99.2499 63.3072 97.6059 63.9552 96.2139C64.6272 94.7979 65.5752 93.7059 66.7992 92.9379C68.0232 92.1699 69.4632 91.7859 71.1192 91.7859C75.5352 91.7859 77.7432 94.4139 77.7432 99.6699C77.5512 100.078 77.3232 100.438 77.0592 100.75ZM65.1072 99.2019H75.8352C75.8352 95.3139 74.2632 93.3699 71.1192 93.3699C69.5352 93.3699 68.2032 93.8979 67.1232 94.9539C66.0672 96.0099 65.3952 97.4259 65.1072 99.2019ZM81.5609 108.238L81.4889 104.314C81.6569 104.242 81.8369 104.206 82.0289 104.206C82.2689 104.206 82.4969 104.278 82.7129 104.422L83.4689 108.13C84.6449 108.658 86.0009 108.922 87.5369 108.922C89.0249 108.922 90.2009 108.61 91.0649 107.986C91.9289 107.362 92.3609 106.522 92.3609 105.466C92.3609 104.602 92.0249 103.87 91.3529 103.27C90.7049 102.67 89.6729 102.166 88.2569 101.758C86.6489 101.302 85.3769 100.834 84.4409 100.354C83.5049 99.8499 82.8329 99.2859 82.4249 98.6619C82.0409 98.0139 81.8489 97.2459 81.8489 96.3579C81.8489 94.9419 82.3889 93.8259 83.4689 93.0099C84.5729 92.1939 86.0729 91.7859 87.9689 91.7859C88.8329 91.7859 89.7209 91.8699 90.6329 92.0379C91.5689 92.2059 92.2649 92.4219 92.7209 92.6859C92.9849 92.9979 93.2129 93.3579 93.4049 93.7659L93.4769 97.3299C93.2849 97.4019 93.1049 97.4379 92.9369 97.4379C92.6969 97.4379 92.4689 97.3659 92.2529 97.2219L91.4969 93.9099C90.4649 93.5259 89.3249 93.3339 88.0769 93.3339C85.2209 93.3339 83.7929 94.3419 83.7929 96.3579C83.7929 96.9099 83.9249 97.3899 84.1889 97.7979C84.4769 98.1819 84.9689 98.5419 85.6649 98.8779C86.3609 99.2139 87.3209 99.5739 88.5449 99.9579C90.5609 100.558 92.0249 101.302 92.9369 102.19C93.8729 103.054 94.3409 104.146 94.3409 105.466C94.3409 107.026 93.7409 108.262 92.5409 109.174C91.3409 110.062 89.6729 110.506 87.5369 110.506C86.5289 110.506 85.5449 110.398 84.5849 110.182C83.6489 109.966 82.8689 109.678 82.2449 109.318C81.9809 109.006 81.7529 108.646 81.5609 108.238ZM105.062 110.146H97.3936C97.3216 109.954 97.2856 109.786 97.2856 109.642C97.2856 109.45 97.3576 109.222 97.5016 108.958L100.31 108.67V93.8379H97.3936C97.3216 93.6699 97.2856 93.5019 97.2856 93.3339C97.2856 93.1179 97.3576 92.8899 97.5016 92.6499L101.246 91.9659C101.654 92.1819 101.99 92.4459 102.254 92.7579V108.598H104.702C105.086 108.598 105.278 108.766 105.278 109.102C105.278 109.246 105.23 109.498 105.134 109.858L105.062 110.146ZM102.362 87.3939C102.362 87.8499 102.218 88.2219 101.93 88.5099C101.642 88.7739 101.246 88.9059 100.742 88.9059C100.238 88.9059 99.8416 88.7739 99.5536 88.5099C99.2656 88.2219 99.1216 87.8499 99.1216 87.3939C99.1216 86.9379 99.2656 86.5779 99.5536 86.3139C99.8416 86.0259 100.238 85.8819 100.742 85.8819C101.246 85.8819 101.642 86.0259 101.93 86.3139C102.218 86.5779 102.362 86.9379 102.362 87.3939ZM113.212 106.654H117.316C119.308 106.654 120.88 107.086 122.032 107.95C123.208 108.814 123.796 109.978 123.796 111.442C123.796 113.17 123.016 114.55 121.456 115.582C119.896 116.638 117.82 117.166 115.228 117.166C112.708 117.166 110.728 116.698 109.288 115.762C107.848 114.826 107.128 113.542 107.128 111.91C107.128 110.158 108.172 108.682 110.26 107.482C109.66 107.002 109.36 106.342 109.36 105.502C109.36 104.35 109.948 103.258 111.124 102.226C109.804 101.122 109.144 99.6219 109.144 97.7259C109.144 95.9499 109.72 94.5219 110.872 93.4419C112.048 92.3379 113.584 91.7859 115.48 91.7859C117.112 91.7859 118.468 92.1939 119.548 93.0099L123.4 92.5419C123.784 92.5179 123.976 92.6859 123.976 93.0459C123.976 93.1899 123.928 93.4419 123.832 93.8019L123.724 94.1979H120.736C121.072 94.6779 121.336 95.2179 121.528 95.8179C121.72 96.3939 121.816 97.0299 121.816 97.7259C121.816 99.5019 121.228 100.942 120.052 102.046C118.9 103.126 117.376 103.666 115.48 103.666C114.256 103.666 113.164 103.426 112.204 102.946C111.532 103.546 111.196 104.254 111.196 105.07C111.196 106.126 111.868 106.654 113.212 106.654ZM117.316 108.238H112.456C112.12 108.238 111.796 108.202 111.484 108.13C109.9 109.162 109.108 110.386 109.108 111.802C109.108 112.954 109.66 113.866 110.764 114.538C111.868 115.234 113.356 115.582 115.228 115.582C117.22 115.582 118.816 115.198 120.016 114.43C121.216 113.686 121.816 112.69 121.816 111.442C121.816 110.434 121.42 109.654 120.628 109.102C119.836 108.526 118.732 108.238 117.316 108.238ZM119.98 97.7259C119.98 96.3819 119.572 95.3139 118.756 94.5219C117.94 93.7299 116.848 93.3339 115.48 93.3339C114.112 93.3339 113.02 93.7299 112.204 94.5219C111.388 95.3139 110.98 96.3819 110.98 97.7259C110.98 99.0699 111.388 100.138 112.204 100.93C113.02 101.722 114.112 102.118 115.48 102.118C116.848 102.118 117.94 101.722 118.756 100.93C119.572 100.138 119.98 99.0699 119.98 97.7259ZM146.268 110.146H139.32C139.248 109.954 139.212 109.786 139.212 109.642C139.212 109.45 139.284 109.222 139.428 108.958L141.876 108.67V98.4459C141.876 95.0619 140.448 93.3699 137.592 93.3699C136.464 93.3699 135.42 93.7059 134.46 94.3779C133.524 95.0259 132.768 95.9019 132.192 97.0059C131.616 98.0859 131.328 99.2739 131.328 100.57V108.598H133.416C133.8 108.598 133.992 108.766 133.992 109.102C133.992 109.246 133.944 109.498 133.848 109.858L133.776 110.146H126.828C126.756 109.954 126.72 109.786 126.72 109.642C126.72 109.45 126.792 109.222 126.936 108.958L129.384 108.67V93.8379H126.648C126.576 93.6699 126.54 93.5019 126.54 93.3339C126.54 93.1179 126.612 92.8899 126.756 92.6499L130.32 91.9659C130.728 92.1819 131.064 92.4459 131.328 92.7579L131.076 96.3579C131.748 94.8939 132.672 93.7659 133.848 92.9739C135.024 92.1819 136.38 91.7859 137.916 91.7859C139.836 91.7859 141.3 92.3619 142.308 93.5139C143.316 94.6419 143.82 96.2859 143.82 98.4459V108.598H145.908C146.292 108.598 146.484 108.766 146.484 109.102C146.484 109.246 146.436 109.498 146.34 109.858L146.268 110.146Z" fill="url(#paint0_radial)"/>
<defs>
<radialGradient id="paint0_radial" cx="0" cy="0" r="1" gradientUnits="userSpaceOnUse" gradientTransform="translate(183.589 64.9892) rotate(167.33) scale(155.583 166.988)">
<stop stop-color="#FDF497"/>
<stop offset="0.25" stop-color="#FD5949"/>
<stop offset="0.5625" stop-color="#D6249F"/>
<stop offset="1" stop-color="#285AEB"/>
</radialGradient>
</defs>
</svg>
