<svg width="50" height="51" viewBox="0 0 50 51" fill="none" xmlns="http://www.w3.org/2000/svg">
<path d="M25 5.24976C30.3043 5.24976 35.3914 7.35689 39.1421 11.1076C42.8929 14.8583 45 19.9454 45 25.2498C45 30.5541 42.8929 35.6412 39.1421 39.3919C35.3914 43.1426 30.3043 45.2498 25 45.2498C19.6957 45.2498 14.6086 43.1426 10.8579 39.3919C7.10714 35.6412 5 30.5541 5 25.2498C5 19.9454 7.10714 14.8583 10.8579 11.1076C14.6086 7.35689 19.6957 5.24976 25 5.24976ZM25 7.74976C22.7019 7.74976 20.4262 8.20241 18.303 9.08186C16.1798 9.96132 14.2507 11.2504 12.6256 12.8754C11.0006 14.5004 9.71157 16.4296 8.83211 18.5528C7.95265 20.676 7.5 22.9516 7.5 25.2498C7.5 27.5479 7.95265 29.8235 8.83211 31.9467C9.71157 34.0699 11.0006 35.9991 12.6256 37.6241C14.2507 39.2491 16.1798 40.5382 18.303 41.4176C20.4262 42.2971 22.7019 42.7498 25 42.7498C29.6413 42.7498 34.0925 40.906 37.3744 37.6241C40.6563 34.3422 42.5 29.891 42.5 25.2498C42.5 20.6085 40.6563 16.1573 37.3744 12.8754C34.0925 9.5935 29.6413 7.74976 25 7.74976ZM17.8875 31.3173C19.6945 33.1366 22.1299 34.1945 24.6929 34.2735C27.2559 34.3526 29.7518 33.4468 31.6675 31.7423L32.1125 31.3173C32.3321 31.0941 32.6275 30.9614 32.9403 30.9456C33.253 30.9298 33.5603 31.0319 33.8014 31.2318C34.0424 31.4316 34.1997 31.7147 34.242 32.025C34.2843 32.3352 34.2087 32.6501 34.03 32.9073L33.8875 33.0823L33.83 33.1373C32.6629 34.2969 31.2789 35.2153 29.7568 35.84C28.2348 36.4648 26.6046 36.7836 24.9593 36.7782C23.3141 36.7729 21.686 36.4435 20.1681 35.8089C18.6501 35.1743 17.272 34.247 16.1125 33.0798C15.8788 32.8444 15.7481 32.5258 15.7493 32.1941C15.7505 31.8624 15.8834 31.5447 16.1188 31.311C16.3541 31.0773 16.6727 30.9466 17.0044 30.9478C17.3361 30.949 17.6538 31.0819 17.8875 31.3173ZM31.25 18.9998C31.913 18.9998 32.5489 19.2631 33.0178 19.732C33.4866 20.2008 33.75 20.8367 33.75 21.4998C33.75 22.1628 33.4866 22.7987 33.0178 23.2675C32.5489 23.7364 31.913 23.9998 31.25 23.9998C30.587 23.9998 29.9511 23.7364 29.4822 23.2675C29.0134 22.7987 28.75 22.1628 28.75 21.4998C28.75 20.8367 29.0134 20.2008 29.4822 19.732C29.9511 19.2631 30.587 18.9998 31.25 18.9998ZM18.75 18.9998C19.413 18.9998 20.0489 19.2631 20.5178 19.732C20.9866 20.2008 21.25 20.8367 21.25 21.4998C21.25 22.1628 20.9866 22.7987 20.5178 23.2675C20.0489 23.7364 19.413 23.9998 18.75 23.9998C18.087 23.9998 17.4511 23.7364 16.9822 23.2675C16.5134 22.7987 16.25 22.1628 16.25 21.4998C16.25 20.8367 16.5134 20.2008 16.9822 19.732C17.4511 19.2631 18.087 18.9998 18.75 18.9998Z" fill="black"/>
</svg>
