<svg width="51" height="51" viewBox="0 0 51 51" fill="none" xmlns="http://www.w3.org/2000/svg">
<path d="M25.333 5.50613C30.6373 5.50613 35.7244 7.61327 39.4751 11.364C43.2259 15.1147 45.333 20.2018 45.333 25.5061C45.333 30.8105 43.2259 35.8975 39.4751 39.6483C35.7244 43.399 30.6373 45.5061 25.333 45.5061C20.0287 45.5061 14.9416 43.399 11.1909 39.6483C7.44015 35.8975 5.33301 30.8105 5.33301 25.5061C5.33301 20.2018 7.44015 15.1147 11.1909 11.364C14.9416 7.61327 20.0287 5.50613 25.333 5.50613ZM33.728 19.6211C33.521 19.4151 33.2484 19.288 32.9575 19.262C32.6666 19.2359 32.3758 19.3126 32.1355 19.4786L31.9605 19.6211L22.833 28.7511L18.718 24.6336L18.543 24.4886C18.3022 24.3228 18.0109 24.2465 17.7197 24.2732C17.4286 24.2999 17.1559 24.4279 16.9493 24.6348C16.7427 24.8417 16.6152 25.1145 16.5889 25.4057C16.5626 25.6969 16.6393 25.9881 16.8055 26.2286L16.948 26.4036L21.948 31.4036L22.123 31.5461C22.3318 31.6902 22.5794 31.7673 22.833 31.7673C23.0866 31.7673 23.3343 31.6902 23.543 31.5461L23.718 31.4011L33.728 21.3911L33.873 21.2161C34.0394 20.9754 34.116 20.6838 34.0895 20.3924C34.063 20.1009 33.9351 19.828 33.728 19.6211Z" fill="#415CE7"/>
</svg>
